<svg width="40" height="40" viewBox="0 0 40 40" fill="none" xmlns="http://www.w3.org/2000/svg">
<rect width="40" height="40" rx="20" fill="#7279DC"/>
<mask id="mask0_7_342" style="mask-type:alpha" maskUnits="userSpaceOnUse" x="0" y="0" width="40" height="40">
<rect width="40" height="40" rx="20" fill="#FF9A26"/>
</mask>
<g mask="url(#mask0_7_342)">
<path d="M16.6417 26.8652C16.6417 26.8652 19.9039 26.278 21.7703 26.8652V28.2018L16.7401 27.9779L16.6417 26.8661V26.8652Z" fill="#DD006A"/>
<path d="M20.1196 4.00533C12.8012 3.83341 8.81506 7.84844 8.81506 12.15V18.6337C8.81506 22.7915 9.86507 25.8076 13.68 26.0051C13.3437 25.5484 13.1606 25.0415 13.1837 25.0759C13.4644 25.4867 14.5306 26.0307 14.5306 26.0307C14.2234 25.6304 14.0548 25.1658 14.0754 25.1958C14.333 25.5731 14.7343 25.8491 14.9465 26.0448L24.9298 26.3789C29.0785 26.3789 30.3407 22.9361 30.3407 18.6345V12.1509C30.3407 7.84844 27.0657 4.16843 20.1204 4.00621L20.1196 4.00533Z" fill="#1D1D1D"/>
<path d="M20.4516 23.2319H18.0597C17.4926 23.2319 17.0328 23.7056 17.0328 24.2899V28.8569C17.0328 29.4412 17.4926 29.9148 18.0597 29.9148H20.4516C21.0187 29.9148 21.4785 29.4412 21.4785 28.8569V24.2899C21.4785 23.7056 21.0187 23.2319 20.4516 23.2319Z" fill="#F59182"/>
<path d="M9.9224 19.8667C11.5364 19.8667 12.8448 18.6055 12.8448 17.0498C12.8448 15.4941 11.5364 14.2329 9.9224 14.2329C8.3084 14.2329 7 15.4941 7 17.0498C7 18.6055 8.3084 19.8667 9.9224 19.8667Z" fill="#FBC7AD"/>
<path d="M10.0962 18.9912C11.229 18.9912 12.1474 18.1221 12.1474 17.0499C12.1474 15.9777 11.229 15.1085 10.0962 15.1085C8.96329 15.1085 8.04492 15.9777 8.04492 17.0499C8.04492 18.1221 8.96329 18.9912 10.0962 18.9912Z" fill="#F59182"/>
<path d="M8.89551 17.122C8.89551 17.122 9.64258 16.6371 10.4872 17.301C10.4872 17.301 9.90187 16.3003 8.89551 17.122Z" fill="#1D1D1D"/>
<path d="M29.0776 19.8667C30.6915 19.8667 32 18.6055 32 17.0498C32 15.4941 30.6915 14.2329 29.0776 14.2329C27.4636 14.2329 26.1552 15.4941 26.1552 17.0498C26.1552 18.6055 27.4636 19.8667 29.0776 19.8667Z" fill="#FBC7AD"/>
<path d="M28.9039 18.9912C30.0368 18.9912 30.9551 18.1221 30.9551 17.0499C30.9551 15.9777 30.0368 15.1085 28.9039 15.1085C27.771 15.1085 26.8527 15.9777 26.8527 17.0499C26.8527 18.1221 27.771 18.9912 28.9039 18.9912Z" fill="#F59182"/>
<path d="M30.1035 17.122C30.1035 17.122 29.3565 16.6371 28.5118 17.301C28.5118 17.301 29.0972 16.3003 30.1035 17.122Z" fill="#1D1D1D"/>
<path d="M19.434 25.665C12.6933 25.6633 9.776 22.0036 9.776 17.3141V14.2318C9.776 9.54233 13.466 5.74066 18.0178 5.74066H21.0095C25.5612 5.74066 29.2513 9.54233 29.2513 14.2318V17.3141C29.2513 22.0036 25.7966 25.6668 19.434 25.665Z" fill="#FBC7AD"/>
<path d="M26.5342 17.061C26.5342 18.6471 25.3627 19.3533 23.9182 19.3533C22.1108 19.3533 21.3021 18.327 21.3021 17.061C21.3021 15.7949 22.4737 14.7687 23.9182 14.7687C25.3627 14.7687 26.5342 15.7949 26.5342 17.061Z" fill="white"/>
<path d="M21.0369 17.0611C21.0369 17.0611 22.0073 14.8596 24.1698 15.1523C25.2754 15.3022 25.4209 15.8118 26.3134 16.9306C26.4795 17.1396 27.2086 16.8213 27.2342 16.7984C27.2625 16.7728 26.6335 16.5259 26.6446 16.4537C26.648 16.4316 25.8351 14.6092 24.1184 14.5563C23.2516 14.5299 22.4703 15.013 22.1673 15.2581C21.3475 15.922 21.1028 16.7896 21.0377 17.0602L21.0369 17.0611Z" fill="#1D1D1D"/>
<path d="M23.8625 15.5271C22.9999 15.5271 22.3008 16.2474 22.3008 17.1361C22.3008 18.0248 22.9999 18.7451 23.8625 18.7451C24.7251 18.7451 25.4243 18.0248 25.4243 17.1361C25.4243 16.2474 24.7251 15.5271 23.8625 15.5271ZM24.6045 16.7059C24.4248 16.7059 24.2793 16.556 24.2793 16.3708C24.2793 16.1857 24.4248 16.0358 24.6045 16.0358C24.7842 16.0358 24.9297 16.1857 24.9297 16.3708C24.9297 16.556 24.7842 16.7059 24.6045 16.7059Z" fill="#1D1D1D"/>
<path d="M22.2795 13.547C22.7441 13.7453 24.4094 12.7632 25.4244 13.0497C26.7713 13.4297 26.8663 13.7691 26.8663 13.7691C26.8663 13.7691 26.352 12.6873 24.9297 12.2633C23.7146 11.9009 21.0215 13.0091 22.2795 13.547Z" fill="#1D1D1D"/>
<path d="M12.2739 17.0958C12.2739 18.6818 13.4455 19.388 14.89 19.388C16.6973 19.388 17.506 18.3618 17.506 17.0958C17.506 15.8297 16.3345 14.8035 14.89 14.8035C13.4455 14.8035 12.2739 15.8297 12.2739 17.0958Z" fill="white"/>
<path d="M17.7721 17.0959C17.7721 17.0959 16.8017 14.8944 14.6392 15.1871C13.5336 15.337 13.3881 15.8466 12.4956 16.9654C12.3296 17.1744 11.6004 16.8561 11.5748 16.8332C11.5465 16.8076 12.1755 16.5607 12.1644 16.4884C12.161 16.4664 12.9739 14.644 14.6906 14.5911C15.5575 14.5647 16.3388 15.0478 16.6417 15.2929C17.4615 15.9568 17.7063 16.8244 17.7713 17.095L17.7721 17.0959Z" fill="#1D1D1D"/>
<path d="M14.9465 15.5642C14.0839 15.5642 13.3848 16.2845 13.3848 17.1732C13.3848 18.0619 14.0839 18.7822 14.9465 18.7822C15.8091 18.7822 16.5083 18.0619 16.5083 17.1732C16.5083 16.2845 15.8091 15.5642 14.9465 15.5642ZM15.6885 16.743C15.5087 16.743 15.3633 16.5931 15.3633 16.4079C15.3633 16.2228 15.5087 16.0729 15.6885 16.0729C15.8682 16.0729 16.0136 16.2228 16.0136 16.4079C16.0136 16.5931 15.8682 16.743 15.6885 16.743Z" fill="#1D1D1D"/>
<path d="M16.5296 13.5829C16.0649 13.7813 14.3996 12.7991 13.3847 13.0857C12.0377 13.4657 11.9427 13.8051 11.9427 13.8051C11.9427 13.8051 12.4571 12.7233 13.8793 12.2992C15.0945 11.9369 17.7875 13.0451 16.5296 13.5829Z" fill="#1D1D1D"/>
<path d="M20.5399 19.768C20.4355 20.1145 20.0991 20.2467 19.8638 20.2494C19.8304 20.2494 20.5399 19.768 20.5399 19.768Z" fill="#F59182"/>
<path d="M19.8011 20.2736C19.9021 20.2198 19.9911 20.1501 20.0801 20.0814C20.1683 20.0117 20.2547 19.9385 20.3377 19.8627C20.4216 19.7878 20.5029 19.7093 20.5807 19.6282C20.6192 19.5868 20.6569 19.5453 20.6911 19.5004C20.7262 19.4563 20.7562 19.4087 20.7767 19.354C20.7681 19.4739 20.6997 19.5806 20.6312 19.6732C20.5611 19.7675 20.4798 19.8513 20.3942 19.9297C20.3078 20.0064 20.2162 20.0787 20.1178 20.1387C20.0202 20.1995 19.9141 20.2524 19.8011 20.2736Z" fill="#1D1D1D"/>
<path d="M17.5189 21.8415L17.7252 21.9305C17.7953 21.9561 17.8638 21.9852 17.9348 22.009C18.0752 22.0584 18.2181 22.1025 18.3618 22.1377C18.6502 22.2083 18.9438 22.255 19.239 22.2717C19.5342 22.2903 19.8312 22.2779 20.1247 22.24C20.1974 22.2277 20.2719 22.2197 20.3446 22.2047C20.4174 22.1889 20.4901 22.1748 20.562 22.1571C20.6339 22.1377 20.7066 22.1201 20.7785 22.0998C20.8495 22.076 20.9205 22.0531 20.9924 22.0302C20.924 22.061 20.8555 22.0919 20.7862 22.1219C20.716 22.1492 20.645 22.173 20.574 22.1986C20.5021 22.2215 20.4293 22.2391 20.3566 22.2594C20.2839 22.2788 20.2094 22.2911 20.1358 22.307C19.8397 22.3625 19.5359 22.3767 19.2356 22.3599C18.9343 22.3405 18.6357 22.2903 18.3464 22.203C18.0572 22.1166 17.7774 21.9993 17.5198 21.8424L17.5189 21.8415Z" fill="#1D1D1D"/>
<path d="M18.3917 22.6173C18.3917 22.6173 19.0036 22.9911 20.1203 22.6852C20.1203 22.6852 19.2937 23.3403 18.3917 22.6173Z" fill="#F59182"/>
<path d="M19.2057 4.60427C9.23269 4.57782 9.4415 10.9054 9.36106 14.2557C9.36106 14.2751 9.3679 14.2927 9.37988 14.3112C9.13172 20.8125 11.3909 22.7733 11.3909 22.7733C11.3909 22.7733 12.8286 24.6777 11.5321 22.7733C10.69 21.5363 10.8312 17.5971 11.1992 14.6789C13.0613 14.8279 16.0976 14.8596 19.1629 14.8402C19.5753 14.3738 19.9356 13.8572 19.9998 13.3978C19.9998 13.3978 20.0084 14.0987 19.583 14.8376C19.7713 14.8358 21.1722 13.3714 21.2509 12.6811C21.2509 12.6811 21.2612 13.7805 20.657 14.8279C23.3689 14.7979 25.9558 14.7371 27.6117 14.6921C28.0011 17.6298 28.174 21.7462 27.3088 23.0157C26.0123 24.9201 27.45 23.0157 27.45 23.0157C27.45 23.0157 29.7203 21.0453 29.4584 14.5061C29.5868 13.3264 30.1602 4.63336 19.2048 4.60427H19.2057Z" fill="#1D1D1D"/>
<path d="M17.0328 26.9744V29.2023C17.0328 29.5946 17.3443 29.9155 17.7251 29.9155H20.7862C21.167 29.9155 21.4785 29.5946 21.4785 29.2023V26.0372C19.868 26.2329 18.2583 26.6226 17.0328 26.9735V26.9744Z" fill="#FBC7AD"/>
<path d="M29.1511 33.9735C28.0164 28.494 23.2533 27.7279 23.2533 27.7279V27.7305C22.8896 27.6494 22.5113 27.6062 22.1237 27.6062H21.5135C21.3578 28.6862 20.449 29.5211 19.3596 29.5211H19.1679C18.0785 29.5211 17.1697 28.6853 17.014 27.6062H16.7085C16.2652 27.6062 15.8347 27.6626 15.424 27.7684C14.5254 27.98 10.7165 29.1508 9.71696 33.9744C8.58223 39.4538 8.83981 42 8.83981 42H30.0274C30.0274 42 30.2859 39.4538 29.1503 33.9744L29.1511 33.9735Z" fill="#FF714A"/>
<path d="M29.1511 33.973C28.0164 28.4935 23.2532 27.7273 23.2532 27.7273V27.73C23.0889 27.693 22.9221 27.6656 22.7526 27.6445C23.0188 27.8499 23.2798 28.1162 23.48 28.4626C24.1483 29.6167 24.4034 31.2566 23.0478 32.5923C21.6958 33.9245 20.6902 35.7592 20.6843 35.7698C20.6894 35.8703 20.6954 35.9716 20.7039 36.0748C20.8554 37.8778 20.508 40.6761 20.3197 41.9977H30.0282C30.0488 41.0394 30.0085 38.1123 29.1511 33.9721V33.973Z" fill="#FF0070"/>
<path d="M23.0479 32.5941C24.4034 31.2575 24.1484 29.6186 23.48 28.4645C23.2404 28.0501 22.3487 27.068 21.7702 26.8652C21.2722 26.8749 21.7908 27.6066 21.7908 27.6066C21.7908 27.6066 22.596 29.0314 21.9679 30.4076C21.3663 31.7257 20.5713 33.4908 20.6843 35.7716C20.6903 35.761 21.6958 33.9272 23.0479 32.5941Z" fill="#DD006A"/>
<path d="M25.4371 35.4641C25.4816 35.9949 25.5219 36.523 25.5415 37.0528C25.5561 37.3173 25.5587 37.5827 25.5681 37.8472L25.5783 38.6416L25.5723 39.4359C25.5646 39.7004 25.5629 39.9658 25.5501 40.2303C25.5296 40.7602 25.4988 41.2901 25.4371 41.8199C25.3695 41.2909 25.3336 40.7611 25.3088 40.2312C25.2934 39.9667 25.2891 39.7013 25.2797 39.4368L25.2694 38.6425L25.2763 37.8481C25.284 37.5836 25.2874 37.3182 25.3019 37.0528C25.3276 36.523 25.3541 35.9922 25.438 35.4641H25.4371Z" fill="#DD006A"/>
<path d="M9.32673 33.973C10.4615 28.4935 15.2246 27.7273 15.2246 27.7273V27.73C15.3889 27.693 15.5558 27.6656 15.7252 27.6445C15.4591 27.8499 15.1981 28.1162 14.9978 28.4626C14.3295 29.6167 14.0745 31.2566 15.43 32.5923C16.7821 33.9245 17.7876 35.7592 17.7936 35.7698C17.7884 35.8703 17.7824 35.9716 17.7739 36.0748C17.6224 37.8778 17.9698 40.6761 18.1581 41.9977H8.51462C8.49408 41.0394 8.46926 38.1123 9.32673 33.9721V33.973Z" fill="#FF0070"/>
<path d="M15.4301 32.5941C14.0746 31.2575 14.3296 29.6186 14.9979 28.4645C15.2376 28.0501 16.1293 27.068 16.7077 26.8652C17.2058 26.8749 16.6872 27.6066 16.6872 27.6066C16.6872 27.6066 15.8819 29.0314 16.5101 30.4076C17.1117 31.7257 17.9067 33.4908 17.7937 35.7716C17.7877 35.761 16.7822 33.9272 15.4301 32.5941Z" fill="#DD006A"/>
<path d="M13.0407 35.4641C12.9962 35.9949 12.956 36.523 12.9363 37.0528C12.9218 37.3173 12.9192 37.5827 12.9098 37.8472L12.8995 38.6416L12.9055 39.4359C12.9132 39.7004 12.9149 39.9658 12.9278 40.2303C12.9483 40.7602 12.9791 41.2901 13.0407 41.8199C13.1083 41.2909 13.1443 40.7611 13.1691 40.2312C13.1845 39.9667 13.1888 39.7013 13.1982 39.4368L13.2085 38.6425L13.2016 37.8481C13.1939 37.5836 13.1905 37.3182 13.1759 37.0528C13.1503 36.523 13.1237 35.9922 13.0399 35.4641H13.0407Z" fill="#DD006A"/>
</g>
</svg>
