<svg width="19" height="18" viewBox="0 0 19 18" fill="none" xmlns="http://www.w3.org/2000/svg">
<path d="M11.5 5V3C11.5 2.46957 11.2893 1.96086 10.9142 1.58579C10.5391 1.21071 10.0304 1 9.5 1H2.5C1.96957 1 1.46086 1.21071 1.08579 1.58579C0.710714 1.96086 0.5 2.46957 0.5 3V15C0.5 15.5304 0.710714 16.0391 1.08579 16.4142C1.46086 16.7893 1.96957 17 2.5 17H9.5C10.0304 17 10.5391 16.7893 10.9142 16.4142C11.2893 16.0391 11.5 15.5304 11.5 15V13" stroke="white" stroke-linecap="round" stroke-linejoin="round"/>
<path d="M6.5 9H18.5M18.5 9L15.5 6M18.5 9L15.5 12" stroke="white" stroke-linecap="round" stroke-linejoin="round"/>
</svg>
