<svg width="22" height="14" viewBox="0 0 22 14" fill="none" xmlns="http://www.w3.org/2000/svg">
<path fill-rule="evenodd" clip-rule="evenodd" d="M0 7C0 7 4.125 0 11 0C17.875 0 22 7 22 7C22 7 17.875 14 11 14C4.125 14 0 7 0 7ZM2.48875 7.15167L2.37875 7L2.4915 6.84833C2.93975 6.25333 3.59975 5.4635 4.444 4.683C6.17925 3.07417 8.415 1.75 11 1.75C13.5823 1.75 15.8208 3.07417 17.5588 4.683C18.3277 5.40064 19.018 6.17617 19.6213 7C19.0153 7.82285 18.3242 8.59825 17.556 9.317C15.8207 10.9258 13.585 12.25 11 12.25C8.41775 12.25 6.17925 10.9258 4.44125 9.317C3.71892 8.64372 3.06571 7.91931 2.48875 7.15167ZM15.125 7C15.1247 7.73678 14.8505 8.4547 14.3412 9.05149C13.832 9.64828 13.1138 10.0935 12.2889 10.3237C11.464 10.5539 10.5746 10.5574 9.74725 10.3337C8.91992 10.1099 8.1969 9.67031 7.68121 9.07753C7.16552 8.48475 6.88345 7.76901 6.87519 7.03226C6.86693 6.29551 7.13289 5.57534 7.6352 4.97434C8.13751 4.37334 8.85053 3.92217 9.6727 3.6851C10.4949 3.44802 11.3842 3.43714 12.2141 3.654C11.9102 3.77068 11.6442 3.94815 11.4389 4.17121C11.2336 4.39426 11.0951 4.65623 11.0353 4.93467C10.9756 5.2131 10.9962 5.49968 11.0956 5.76984C11.195 6.04 11.3702 6.28567 11.606 6.48579C11.8419 6.68591 12.1314 6.83451 12.4498 6.91885C12.7682 7.00319 13.106 7.02074 13.4341 6.97001C13.7623 6.91928 14.0711 6.80178 14.3339 6.62758C14.5968 6.45338 14.806 6.22768 14.9435 5.96983C15.0642 6.30362 15.1254 6.65085 15.125 7Z" fill="#7279DC"/>
</svg>
