<svg width="20" height="18" viewBox="0 0 20 18" fill="none" xmlns="http://www.w3.org/2000/svg">
<path d="M7.3 9.00083H19M19 9.00083L15.85 6.60059M19 9.00083L15.85 11.4011" stroke="white" stroke-width="1.5" stroke-linecap="round" stroke-linejoin="round"/>
<path d="M12.6982 5.0004C12.6874 3.26023 12.6001 2.31773 11.9089 1.70327C11.1178 1 9.8452 1 7.3 1H6.4C3.8539 1 2.5813 1 1.7902 1.70327C0.999996 2.40574 0.999996 3.53785 0.999996 5.80048V12.2011C0.999996 14.4637 0.999996 15.5959 1.7902 16.2983C2.4823 16.9136 3.5425 16.9904 5.5 17M12.6982 13.0012C12.6874 14.7414 12.6001 15.6839 11.9089 16.2983C11.332 16.812 10.4977 16.9504 9.1 16.988" stroke="white" stroke-width="1.5" stroke-linecap="round"/>
</svg>
