<svg width="20" height="22" viewBox="0 0 20 22" fill="none" xmlns="http://www.w3.org/2000/svg">
<path d="M15 8H6V6H15V8ZM5 6H3V8H5V6ZM5 3H3V5H5V3ZM8 3H6V5H8V3ZM11 16V18H12C12.55 18 13 18.45 13 19H20V21H13C13 21.55 12.55 22 12 22H8C7.45 22 7 21.55 7 21H0V19H7C7 18.45 7.45 18 8 18H9V16H2C0.89 16 0 15.11 0 14V2C0 1.46957 0.210714 0.960859 0.585786 0.585786C0.960859 0.210714 1.46957 0 2 0H18C19.11 0 20 0.89 20 2V14C20 15.11 19.11 16 18 16H11ZM18 14V2H2V14H18ZM9 5H17V3H9V5ZM3 11H9V9H3V11ZM11 13H17V11H11V13Z" fill="#7279DC"/>
</svg>
