<svg width="20" height="18" viewBox="0 0 20 18" fill="none" xmlns="http://www.w3.org/2000/svg">
<path d="M2.2 3.90909C2.86274 3.90909 3.4 3.25787 3.4 2.45455C3.4 1.65122 2.86274 1 2.2 1C1.53726 1 1 1.65122 1 2.45455C1 3.25787 1.53726 3.90909 2.2 3.90909Z" stroke="white" stroke-width="1.3"/>
<path d="M5.8 1H19M5.8 3.90909H13" stroke="white" stroke-width="1.3" stroke-linecap="round"/>
<path d="M2.2 10.4546C2.86274 10.4546 3.4 9.80334 3.4 9.00002C3.4 8.19669 2.86274 7.54547 2.2 7.54547C1.53726 7.54547 1 8.19669 1 9.00002C1 9.80334 1.53726 10.4546 2.2 10.4546Z" stroke="white" stroke-width="1.3"/>
<path d="M5.8 7.54547H15.4M5.8 10.4546H14.2" stroke="white" stroke-width="1.3" stroke-linecap="round"/>
<path d="M2.2 17C2.86274 17 3.4 16.3488 3.4 15.5454C3.4 14.7421 2.86274 14.0909 2.2 14.0909C1.53726 14.0909 1 14.7421 1 15.5454C1 16.3488 1.53726 17 2.2 17Z" stroke="white" stroke-width="1.3"/>
<path d="M5.8 14.0909H17.2M5.8 17H10.6" stroke="white" stroke-width="1.3" stroke-linecap="round"/>
</svg>
