<svg width="21" height="21" viewBox="0 0 21 21" fill="none" xmlns="http://www.w3.org/2000/svg">
<path d="M12 11V9M12 9V7M12 9H14M12 9H10M1 1L1.261 1.092C2.563 1.549 3.214 1.778 3.586 2.323C3.958 2.868 3.958 3.591 3.958 5.038V7.76C3.958 10.702 4.021 11.672 4.888 12.586C5.754 13.5 7.148 13.5 9.938 13.5H11M15.24 13.5C16.801 13.5 17.582 13.5 18.134 13.05C18.685 12.6 18.843 11.836 19.158 10.307L19.658 7.883C20.005 6.143 20.178 5.274 19.734 4.697C19.291 4.12 17.774 4.12 16.089 4.12H10.024M3.958 4.12H6" stroke="#7279DC" stroke-width="1.5" stroke-linecap="round"/>
<path d="M5.99988 16.5C6.3977 16.5 6.77923 16.658 7.06054 16.9393C7.34184 17.2206 7.49988 17.6022 7.49988 18C7.49988 18.3978 7.34184 18.7794 7.06054 19.0607C6.77923 19.342 6.3977 19.5 5.99988 19.5C5.60205 19.5 5.22052 19.342 4.93922 19.0607C4.65791 18.7794 4.49988 18.3978 4.49988 18C4.49988 17.6022 4.65791 17.2206 4.93922 16.9393C5.22052 16.658 5.60205 16.5 5.99988 16.5ZM14.9999 16.5C15.3977 16.5 15.7792 16.658 16.0605 16.9393C16.3418 17.2206 16.4999 17.6022 16.4999 18C16.4999 18.3978 16.3418 18.7794 16.0605 19.0607C15.7792 19.342 15.3977 19.5 14.9999 19.5C14.6021 19.5 14.2205 19.342 13.9392 19.0607C13.6579 18.7794 13.4999 18.3978 13.4999 18C13.4999 17.6022 13.6579 17.2206 13.9392 16.9393C14.2205 16.658 14.6021 16.5 14.9999 16.5Z" stroke="#7279DC" stroke-width="1.5"/>
</svg>
