<svg width="40" height="40" viewBox="0 0 40 40" fill="none" xmlns="http://www.w3.org/2000/svg">
<rect width="40" height="40" rx="8" fill="#7279DC"/>
<path d="M12.2773 12.0508H18.582V27.9766H12.2773V12.0508ZM20.5273 16.3867C20.5273 14.6602 20.9648 13.5 21.8398 12.9062C22.668 12.3516 24.2266 12.0742 26.5156 12.0742H27.6992V14.2891C27.6992 16.0547 27.25 17.3125 26.3516 18.0625C25.4375 18.8125 23.8633 19.1875 21.6289 19.1875H20.5273V16.3867ZM20.5273 20.4062H21.6289C23.832 20.4062 25.4062 20.8438 26.3516 21.7188C27.25 22.5547 27.6992 23.875 27.6992 25.6797V28H26.5156C24.2734 28 22.7148 27.6641 21.8398 26.9922C20.9648 26.3125 20.5273 25.0938 20.5273 23.3359V20.4062Z" fill="white"/>
</svg>
